# xmcd
#
# Track frame offsets:
#	150
#	18890
#	36418
#	57023
#	70988
#	83813
#	102320
#	124190
#	139873
#	162730
#
# Disc length: 2363 seconds
#
# Revision: 1
# Processed by: cddbd v1.5.1PL0 Copyright (c) Steve Scherf et al.
# Submitted via: audiograbber 1.82.02
#
DISCID=8909390a
DTITLE=Various Artist - South Side Blues
DYEAR=1961
DGENRE=Blues
TTITLE0=Mississippi Sheiks - A Wonderful Thing
TTITLE1=Mama Yancey - For O'Clock Blues
TTITLE2=Little Brother Montgomery - New Satellite Blues
TTITLE3=Mama Yancey - How Long Blues
TTITLE4=Henry Benson - Jelly Jelly
TTITLE5=Mississippi Sheiks - I Knew You Were Kiddin' All The Time
TTITLE6=Mama Yancey - Mama Yancey's Blues
TTITLE7=Henry Benson - Jelly Roll Baker
TTITLE8=Mama Yancey - Make Me A Pallet On The Floor
TTITLE9=Mississippi Sheiks - Things 'Bout Comin' My Way
EXTD=
EXTT0=
EXTT1=
EXTT2=
EXTT3=
EXTT4=
EXTT5=
EXTT6=
EXTT7=
EXTT8=
EXTT9=
PLAYORDER=
